<?xml version="1.0" standalone="no"?>
<!DOCTYPE svg PUBLIC "-//W3C//DTD SVG 20010904//EN"
 "http://www.w3.org/TR/2001/REC-SVG-20010904/DTD/svg10.dtd">
<svg version="1.0" xmlns="http://www.w3.org/2000/svg"
 width="1024.000000pt" height="1024.000000pt" viewBox="0 0 1024.000000 1024.000000"
 preserveAspectRatio="xMidYMid meet">
<metadata>
Created by potrace 1.14, written by Peter Selinger 2001-2017
</metadata>
<g transform="translate(0.000000,1024.000000) scale(0.100000,-0.100000)"
fill="#000000" stroke="none">
<path d="M1042 9610 c-106 -28 -187 -75 -267 -155 -81 -81 -127 -161 -155
-271 -20 -76 -20 -126 -20 -4069 0 -3943 0 -3993 20 -4069 28 -110 74 -190
155 -271 81 -81 161 -127 271 -155 76 -20 126 -20 4069 -20 3943 0 3993 0
4069 20 110 28 190 74 271 155 81 81 127 161 155 271 20 76 20 126 20 4069 0
3943 0 3993 -20 4069 -28 110 -74 190 -155 271 -81 81 -161 127 -271 155 -76
20 -126 20 -4073 19 -3902 0 -3998 -1 -4069 -19z m2152 -980 c817 -46 1316
-336 1601 -933 170 -356 243 -744 261 -1384 l7 -243 -685 0 -685 0 -6 163
c-19 505 -136 791 -372 907 -101 50 -173 63 -335 63 -229 0 -350 -40 -465
-157 -122 -123 -165 -252 -165 -492 0 -261 33 -369 151 -487 55 -55 87 -77
171 -117 123 -59 296 -108 508 -144 672 -116 1059 -265 1368 -526 238 -201
409 -509 485 -875 45 -212 52 -306 51 -675 0 -380 -11 -492 -73 -745 -177
-724 -664 -1192 -1395 -1340 -337 -68 -788 -76 -1136 -19 -871 142 -1369 695
-1510 1679 -25 172 -38 329 -46 563 l-7 192 685 0 685 0 6 -152 c19 -449 136
-716 363 -828 97 -48 179 -62 349 -62 182 0 269 16 381 72 234 115 346 360
315 689 -19 202 -77 320 -206 418 -132 100 -317 169 -596 222 -370 71 -476 94
-592 127 -827 235 -1211 660 -1322 1464 -22 157 -31 606 -16 780 97 1120 754
1774 1848 1839 186 12 182 12 377 1z m4506 -23 c278 -42 461 -97 665 -197 168
-84 278 -164 407 -298 287 -300 453 -727 507 -1305 29 -306 22 -832 -14 -1107
-69 -523 -235 -912 -507 -1188 -86 -87 -199 -177 -294 -234 -30 -18 -54 -38
-54 -45 0 -6 198 -600 440 -1320 242 -719 440 -1311 440 -1315 0 -5 -342 -8
-760 -8 l-759 0 -37 118 c-21 64 -191 608 -379 1207 l-342 1090 -197 3 -196 2
0 -1210 0 -1210 -710 0 -710 0 0 3520 0 3521 1193 -4 c1066 -3 1204 -5 1307
-20z"/>
<path d="M6620 6320 l0 -830 368 0 c335 0 376 2 446 20 102 26 169 63 236 130
135 134 200 354 200 680 0 400 -103 656 -308 763 -119 63 -152 67 -569 67
l-373 0 0 -830z"/>
</g>
</svg>
